<?xml version="1.0" encoding="UTF-8"?>
<!DOCTYPE svg PUBLIC "-//W3C//DTD SVG 1.1//EN" "http://www.w3.org/Graphics/SVG/1.1/DTD/svg11.dtd">
<svg width="244mm" height="125mm" viewBox="0 0 24400 12500" version="1.1" baseProfile="tiny" xmlns="http://www.w3.org/2000/svg" stroke-width="28.222" stroke-linejoin="round" xml:space="preserve">
 <path fill="rgb(255,255,255)" stroke="none" d="M 12181,12458 L 0,12458 0,0 24362,0 24362,12458 12181,12458 Z"/>
 <path fill="none" stroke="rgb(179,179,179)" stroke-linejoin="round" d="M 11848,10581 L 3045,10581 3045,448 20651,448 20651,10581 11848,10581 Z"/>
 <path fill="none" stroke="rgb(179,179,179)" stroke-linejoin="round" d="M 20651,10580 L 3045,10580"/>
 <path fill="none" stroke="rgb(179,179,179)" stroke-linejoin="round" d="M 20651,8553 L 3045,8553"/>
 <path fill="none" stroke="rgb(179,179,179)" stroke-linejoin="round" d="M 20651,6526 L 3045,6526"/>
 <path fill="none" stroke="rgb(179,179,179)" stroke-linejoin="round" d="M 20651,4500 L 3045,4500"/>
 <path fill="none" stroke="rgb(179,179,179)" stroke-linejoin="round" d="M 20651,2473 L 3045,2473"/>
 <path fill="none" stroke="rgb(179,179,179)" stroke-linejoin="round" d="M 20651,447 L 3045,447"/>
 <path fill="none" stroke="rgb(179,179,179)" stroke-linejoin="round" d="M 3045,10730 L 3045,10580"/>
 <path fill="none" stroke="rgb(179,179,179)" stroke-linejoin="round" d="M 3045,10730 L 3045,10580"/>
 <path fill="none" stroke="rgb(179,179,179)" stroke-linejoin="round" d="M 6566,10730 L 6566,10580"/>
 <path fill="none" stroke="rgb(179,179,179)" stroke-linejoin="round" d="M 6566,10730 L 6566,10580"/>
 <path fill="none" stroke="rgb(179,179,179)" stroke-linejoin="round" d="M 10087,10730 L 10087,10580"/>
 <path fill="none" stroke="rgb(179,179,179)" stroke-linejoin="round" d="M 10087,10730 L 10087,10580"/>
 <path fill="none" stroke="rgb(179,179,179)" stroke-linejoin="round" d="M 13608,10730 L 13608,10580"/>
 <path fill="none" stroke="rgb(179,179,179)" stroke-linejoin="round" d="M 13608,10730 L 13608,10580"/>
 <path fill="none" stroke="rgb(179,179,179)" stroke-linejoin="round" d="M 17129,10730 L 17129,10580"/>
 <path fill="none" stroke="rgb(179,179,179)" stroke-linejoin="round" d="M 17129,10730 L 17129,10580"/>
 <path fill="none" stroke="rgb(179,179,179)" stroke-linejoin="round" d="M 20651,10730 L 20651,10580"/>
 <path fill="none" stroke="rgb(179,179,179)" stroke-linejoin="round" d="M 20651,10730 L 20651,10580"/>
 <path fill="none" stroke="rgb(179,179,179)" stroke-linejoin="round" d="M 3045,10580 L 20651,10580"/>
 <path fill="none" stroke="rgb(179,179,179)" stroke-linejoin="round" d="M 2895,10580 L 3045,10580"/>
 <path fill="none" stroke="rgb(179,179,179)" stroke-linejoin="round" d="M 2895,10580 L 3045,10580"/>
 <path fill="none" stroke="rgb(179,179,179)" stroke-linejoin="round" d="M 2895,8553 L 3045,8553"/>
 <path fill="none" stroke="rgb(179,179,179)" stroke-linejoin="round" d="M 2895,8553 L 3045,8553"/>
 <path fill="none" stroke="rgb(179,179,179)" stroke-linejoin="round" d="M 2895,6526 L 3045,6526"/>
 <path fill="none" stroke="rgb(179,179,179)" stroke-linejoin="round" d="M 2895,6526 L 3045,6526"/>
 <path fill="none" stroke="rgb(179,179,179)" stroke-linejoin="round" d="M 2895,4500 L 3045,4500"/>
 <path fill="none" stroke="rgb(179,179,179)" stroke-linejoin="round" d="M 2895,4500 L 3045,4500"/>
 <path fill="none" stroke="rgb(179,179,179)" stroke-linejoin="round" d="M 2895,2473 L 3045,2473"/>
 <path fill="none" stroke="rgb(179,179,179)" stroke-linejoin="round" d="M 2895,2473 L 3045,2473"/>
 <path fill="none" stroke="rgb(179,179,179)" stroke-linejoin="round" d="M 2895,447 L 3045,447"/>
 <path fill="none" stroke="rgb(179,179,179)" stroke-linejoin="round" d="M 2895,447 L 3045,447"/>
 <path fill="none" stroke="rgb(179,179,179)" stroke-linejoin="round" d="M 3045,10580 L 3045,447"/>
 <path fill="none" stroke="rgb(0,69,134)" stroke-width="80" stroke-linejoin="round" d="M 3045,9765 L 6566,10172 10087,10376 13608,10437 17129,10477 20651,10497"/>
 <path fill="rgb(0,69,134)" stroke="none" d="M 2920,9640 L 2920,9890 3170,9890 3170,9640 2920,9640 Z"/>
 <path fill="none" stroke="rgb(0,69,134)" stroke-linejoin="round" d="M 2920,9640 L 2920,9890 3170,9890 3170,9640 2920,9640 Z"/>
 <path fill="rgb(0,69,134)" stroke="none" d="M 6441,10047 L 6441,10297 6691,10297 6691,10047 6441,10047 Z"/>
 <path fill="none" stroke="rgb(0,69,134)" stroke-linejoin="round" d="M 6441,10047 L 6441,10297 6691,10297 6691,10047 6441,10047 Z"/>
 <path fill="rgb(0,69,134)" stroke="none" d="M 9962,10251 L 9962,10501 10212,10501 10212,10251 9962,10251 Z"/>
 <path fill="none" stroke="rgb(0,69,134)" stroke-linejoin="round" d="M 9962,10251 L 9962,10501 10212,10501 10212,10251 9962,10251 Z"/>
 <path fill="rgb(0,69,134)" stroke="none" d="M 13483,10312 L 13483,10562 13733,10562 13733,10312 13483,10312 Z"/>
 <path fill="none" stroke="rgb(0,69,134)" stroke-linejoin="round" d="M 13483,10312 L 13483,10562 13733,10562 13733,10312 13483,10312 Z"/>
 <path fill="rgb(0,69,134)" stroke="none" d="M 17004,10352 L 17004,10602 17254,10602 17254,10352 17004,10352 Z"/>
 <path fill="none" stroke="rgb(0,69,134)" stroke-linejoin="round" d="M 17004,10352 L 17004,10602 17254,10602 17254,10352 17004,10352 Z"/>
 <path fill="rgb(0,69,134)" stroke="none" d="M 20526,10372 L 20526,10622 20776,10622 20776,10372 20526,10372 Z"/>
 <path fill="none" stroke="rgb(0,69,134)" stroke-linejoin="round" d="M 20526,10372 L 20526,10622 20776,10622 20776,10372 20526,10372 Z"/>
 <path fill="none" stroke="rgb(255,66,14)" stroke-width="80" stroke-linejoin="round" d="M 3045,9765 L 6566,10172 10087,10376 13608,10437 17129,10471 20651,10498"/>
 <path fill="rgb(255,66,14)" stroke="none" d="M 2920,9765 L 3045,9890 3170,9765 3045,9640 2920,9765 Z"/>
 <path fill="none" stroke="rgb(255,66,14)" stroke-linejoin="round" d="M 2920,9765 L 3045,9890 3170,9765 3045,9640 2920,9765 Z"/>
 <path fill="rgb(255,66,14)" stroke="none" d="M 6441,10172 L 6566,10297 6691,10172 6566,10047 6441,10172 Z"/>
 <path fill="none" stroke="rgb(255,66,14)" stroke-linejoin="round" d="M 6441,10172 L 6566,10297 6691,10172 6566,10047 6441,10172 Z"/>
 <path fill="rgb(255,66,14)" stroke="none" d="M 9962,10376 L 10087,10501 10212,10376 10087,10251 9962,10376 Z"/>
 <path fill="none" stroke="rgb(255,66,14)" stroke-linejoin="round" d="M 9962,10376 L 10087,10501 10212,10376 10087,10251 9962,10376 Z"/>
 <path fill="rgb(255,66,14)" stroke="none" d="M 13483,10437 L 13608,10562 13733,10437 13608,10312 13483,10437 Z"/>
 <path fill="none" stroke="rgb(255,66,14)" stroke-linejoin="round" d="M 13483,10437 L 13608,10562 13733,10437 13608,10312 13483,10437 Z"/>
 <path fill="rgb(255,66,14)" stroke="none" d="M 17004,10471 L 17129,10596 17254,10471 17129,10346 17004,10471 Z"/>
 <path fill="none" stroke="rgb(255,66,14)" stroke-linejoin="round" d="M 17004,10471 L 17129,10596 17254,10471 17129,10346 17004,10471 Z"/>
 <path fill="rgb(255,66,14)" stroke="none" d="M 20526,10498 L 20651,10623 20776,10498 20651,10373 20526,10498 Z"/>
 <path fill="none" stroke="rgb(255,66,14)" stroke-linejoin="round" d="M 20526,10498 L 20651,10623 20776,10498 20651,10373 20526,10498 Z"/>
 <path fill="none" stroke="rgb(255,211,32)" stroke-width="80" stroke-linejoin="round" d="M 3045,9765 L 6566,10172 10087,10376 13608,10437 17129,10477 20651,10498"/>
 <path fill="rgb(255,211,32)" stroke="none" d="M 2920,9640 L 3045,9890 3170,9640 2920,9640 Z"/>
 <path fill="none" stroke="rgb(255,211,32)" stroke-linejoin="round" d="M 2920,9640 L 3045,9890 3170,9640 2920,9640 Z"/>
 <path fill="rgb(255,211,32)" stroke="none" d="M 6441,10047 L 6566,10297 6691,10047 6441,10047 Z"/>
 <path fill="none" stroke="rgb(255,211,32)" stroke-linejoin="round" d="M 6441,10047 L 6566,10297 6691,10047 6441,10047 Z"/>
 <path fill="rgb(255,211,32)" stroke="none" d="M 9962,10251 L 10087,10501 10212,10251 9962,10251 Z"/>
 <path fill="none" stroke="rgb(255,211,32)" stroke-linejoin="round" d="M 9962,10251 L 10087,10501 10212,10251 9962,10251 Z"/>
 <path fill="rgb(255,211,32)" stroke="none" d="M 13483,10312 L 13608,10562 13733,10312 13483,10312 Z"/>
 <path fill="none" stroke="rgb(255,211,32)" stroke-linejoin="round" d="M 13483,10312 L 13608,10562 13733,10312 13483,10312 Z"/>
 <path fill="rgb(255,211,32)" stroke="none" d="M 17004,10352 L 17129,10602 17254,10352 17004,10352 Z"/>
 <path fill="none" stroke="rgb(255,211,32)" stroke-linejoin="round" d="M 17004,10352 L 17129,10602 17254,10352 17004,10352 Z"/>
 <path fill="rgb(255,211,32)" stroke="none" d="M 20526,10373 L 20651,10623 20776,10373 20526,10373 Z"/>
 <path fill="none" stroke="rgb(255,211,32)" stroke-linejoin="round" d="M 20526,10373 L 20651,10623 20776,10373 20526,10373 Z"/>
 <path fill="none" stroke="rgb(87,157,28)" stroke-width="80" stroke-linejoin="round" d="M 3045,9765 L 6566,5729 10087,3699 13608,3007 17129,2681 20651,2481"/>
 <path fill="rgb(87,157,28)" stroke="none" d="M 2920,9890 L 3170,9890 3045,9640 2920,9890 Z"/>
 <path fill="none" stroke="rgb(87,157,28)" stroke-linejoin="round" d="M 2920,9890 L 3170,9890 3045,9640 2920,9890 Z"/>
 <path fill="rgb(87,157,28)" stroke="none" d="M 6441,5854 L 6691,5854 6566,5604 6441,5854 Z"/>
 <path fill="none" stroke="rgb(87,157,28)" stroke-linejoin="round" d="M 6441,5854 L 6691,5854 6566,5604 6441,5854 Z"/>
 <path fill="rgb(87,157,28)" stroke="none" d="M 9962,3824 L 10212,3824 10087,3574 9962,3824 Z"/>
 <path fill="none" stroke="rgb(87,157,28)" stroke-linejoin="round" d="M 9962,3824 L 10212,3824 10087,3574 9962,3824 Z"/>
 <path fill="rgb(87,157,28)" stroke="none" d="M 13483,3132 L 13733,3132 13608,2882 13483,3132 Z"/>
 <path fill="none" stroke="rgb(87,157,28)" stroke-linejoin="round" d="M 13483,3132 L 13733,3132 13608,2882 13483,3132 Z"/>
 <path fill="rgb(87,157,28)" stroke="none" d="M 17004,2806 L 17254,2806 17129,2556 17004,2806 Z"/>
 <path fill="none" stroke="rgb(87,157,28)" stroke-linejoin="round" d="M 17004,2806 L 17254,2806 17129,2556 17004,2806 Z"/>
 <path fill="rgb(87,157,28)" stroke="none" d="M 20526,2606 L 20776,2606 20651,2356 20526,2606 Z"/>
 <path fill="none" stroke="rgb(87,157,28)" stroke-linejoin="round" d="M 20526,2606 L 20776,2606 20651,2356 20526,2606 Z"/>
 <text class="TextShape"><tspan class="TextParagraph" font-family="Liberation Sans, sans-serif" font-size="353px" font-weight="400"><tspan class="TextPosition" x="2952" y="11148"/><tspan class="TextPosition" x="2952" y="11148"><tspan fill="rgb(0,0,0)" stroke="none">1</tspan></tspan></tspan></text>
 <text class="TextShape"><tspan class="TextParagraph" font-family="Liberation Sans, sans-serif" font-size="353px" font-weight="400"><tspan class="TextPosition" x="6473" y="11148"/><tspan class="TextPosition" x="6473" y="11148"><tspan fill="rgb(0,0,0)" stroke="none">2</tspan></tspan></tspan></text>
 <text class="TextShape"><tspan class="TextParagraph" font-family="Liberation Sans, sans-serif" font-size="353px" font-weight="400"><tspan class="TextPosition" x="9994" y="11148"/><tspan class="TextPosition" x="9994" y="11148"><tspan fill="rgb(0,0,0)" stroke="none">4</tspan></tspan></tspan></text>
 <text class="TextShape"><tspan class="TextParagraph" font-family="Liberation Sans, sans-serif" font-size="353px" font-weight="400"><tspan class="TextPosition" x="13516" y="11148"/><tspan class="TextPosition" x="13516" y="11148"><tspan fill="rgb(0,0,0)" stroke="none">6</tspan></tspan></tspan></text>
 <text class="TextShape"><tspan class="TextParagraph" font-family="Liberation Sans, sans-serif" font-size="353px" font-weight="400"><tspan class="TextPosition" x="17037" y="11148"/><tspan class="TextPosition" x="17037" y="11148"><tspan fill="rgb(0,0,0)" stroke="none">8</tspan></tspan></tspan></text>
 <text class="TextShape"><tspan class="TextParagraph" font-family="Liberation Sans, sans-serif" font-size="353px" font-weight="400"><tspan class="TextPosition" x="20467" y="11148"/><tspan class="TextPosition" x="20467" y="11148"><tspan fill="rgb(0,0,0)" stroke="none">10</tspan></tspan></tspan></text>
 <text class="TextShape"><tspan class="TextParagraph" font-family="Liberation Sans, sans-serif" font-size="353px" font-weight="400"><tspan class="TextPosition" x="2610" y="10701"/><tspan class="TextPosition" x="2610" y="10701"><tspan fill="rgb(0,0,0)" stroke="none">0</tspan></tspan></tspan></text>
 <text class="TextShape"><tspan class="TextParagraph" font-family="Liberation Sans, sans-serif" font-size="353px" font-weight="400"><tspan class="TextPosition" x="1684" y="8674"/><tspan class="TextPosition" x="1684" y="8674"><tspan fill="rgb(0,0,0)" stroke="none">500000</tspan></tspan></tspan></text>
 <text class="TextShape"><tspan class="TextParagraph" font-family="Liberation Sans, sans-serif" font-size="353px" font-weight="400"><tspan class="TextPosition" x="1499" y="6647"/><tspan class="TextPosition" x="1499" y="6647"><tspan fill="rgb(0,0,0)" stroke="none">1000000</tspan></tspan></tspan></text>
 <text class="TextShape"><tspan class="TextParagraph" font-family="Liberation Sans, sans-serif" font-size="353px" font-weight="400"><tspan class="TextPosition" x="1499" y="4620"/><tspan class="TextPosition" x="1499" y="4620"><tspan fill="rgb(0,0,0)" stroke="none">1500000</tspan></tspan></tspan></text>
 <text class="TextShape"><tspan class="TextParagraph" font-family="Liberation Sans, sans-serif" font-size="353px" font-weight="400"><tspan class="TextPosition" x="1499" y="2593"/><tspan class="TextPosition" x="1499" y="2593"><tspan fill="rgb(0,0,0)" stroke="none">2000000</tspan></tspan></tspan></text>
 <text class="TextShape"><tspan class="TextParagraph" font-family="Liberation Sans, sans-serif" font-size="353px" font-weight="400"><tspan class="TextPosition" x="1499" y="567"/><tspan class="TextPosition" x="1499" y="567"><tspan fill="rgb(0,0,0)" stroke="none">2500000</tspan></tspan></tspan></text>
 <path fill="none" stroke="rgb(0,69,134)" stroke-width="80" stroke-linejoin="round" d="M 21441,5481 L 22241,5481"/>
 <path fill="rgb(0,69,134)" stroke="none" d="M 21735,5376 L 21735,5587 21946,5587 21946,5376 21735,5376 Z"/>
 <path fill="none" stroke="rgb(0,69,134)" stroke-linejoin="round" d="M 21735,5376 L 21735,5587 21946,5587 21946,5376 21735,5376 Z"/>
 <path fill="none" stroke="rgb(255,66,14)" stroke-width="80" stroke-linejoin="round" d="M 21441,5979 L 22241,5979"/>
 <path fill="rgb(255,66,14)" stroke="none" d="M 21735,5979 L 21841,6085 21946,5979 21841,5874 21735,5979 Z"/>
 <path fill="none" stroke="rgb(255,66,14)" stroke-linejoin="round" d="M 21735,5979 L 21841,6085 21946,5979 21841,5874 21735,5979 Z"/>
 <path fill="none" stroke="rgb(255,211,32)" stroke-width="80" stroke-linejoin="round" d="M 21441,6476 L 22241,6476"/>
 <path fill="rgb(255,211,32)" stroke="none" d="M 21735,6371 L 21841,6582 21946,6371 21735,6371 Z"/>
 <path fill="none" stroke="rgb(255,211,32)" stroke-linejoin="round" d="M 21735,6371 L 21841,6582 21946,6371 21735,6371 Z"/>
 <path fill="none" stroke="rgb(87,157,28)" stroke-width="80" stroke-linejoin="round" d="M 21441,6974 L 22241,6974"/>
 <path fill="rgb(87,157,28)" stroke="none" d="M 21735,7080 L 21946,7080 21841,6869 21735,7080 Z"/>
 <path fill="none" stroke="rgb(87,157,28)" stroke-linejoin="round" d="M 21735,7080 L 21946,7080 21841,6869 21735,7080 Z"/>
 <text class="TextShape"><tspan class="TextParagraph" font-family="Liberation Sans, sans-serif" font-size="353px" font-weight="400"><tspan class="TextPosition" x="22341" y="5601"/><tspan class="TextPosition" x="22341" y="5601"><tspan fill="rgb(0,0,0)" stroke="none">SE splitted</tspan></tspan></tspan></text>
 <text class="TextShape"><tspan class="TextParagraph" font-family="Liberation Sans, sans-serif" font-size="353px" font-weight="400"><tspan class="TextPosition" x="22341" y="6099"/><tspan class="TextPosition" x="22341" y="6099"><tspan fill="rgb(0,0,0)" stroke="none">RC single</tspan></tspan></tspan></text>
 <text class="TextShape"><tspan class="TextParagraph" font-family="Liberation Sans, sans-serif" font-size="353px" font-weight="400"><tspan class="TextPosition" x="22341" y="6596"/><tspan class="TextPosition" x="22341" y="6596"><tspan fill="rgb(0,0,0)" stroke="none">RC splitted</tspan></tspan></tspan></text>
 <text class="TextShape"><tspan class="TextParagraph" font-family="Liberation Sans, sans-serif" font-size="353px" font-weight="400"><tspan class="TextPosition" x="22341" y="7094"/><tspan class="TextPosition" x="22341" y="7094"><tspan fill="rgb(0,0,0)" stroke="none">SE single</tspan></tspan></tspan></text>
 <text class="TextShape"><tspan class="TextParagraph" font-family="Liberation Sans, sans-serif" font-size="318px" font-weight="400"><tspan class="TextPosition" x="11088" y="11864"/><tspan class="TextPosition" x="11088" y="11864"><tspan fill="rgb(0,0,0)" stroke="none">k</tspan></tspan></tspan></text>
 <text class="TextShape" transform="translate(837,6545) rotate(-90) translate(-837,-6545)"><tspan class="TextParagraph" font-family="Liberation Sans, sans-serif" font-size="318px" font-weight="400"><tspan class="TextPosition" x="837" y="6545"/><tspan class="TextPosition" x="837" y="6545"><tspan fill="rgb(0,0,0)" stroke="none">Time in ms</tspan></tspan></tspan></text>
</svg>